<svg width="24" height="24" viewBox="0 0 24 24" fill="none" xmlns="http://www.w3.org/2000/svg">
<path d="M12.2785 1.66924C12.0997 1.59772 11.9003 1.59772 11.7215 1.66924L2.76944 5.25005L6.375 6.69228L15.6056 3.00005L12.2785 1.66924ZM17.625 3.80783L8.39444 7.50005L12 8.94228L21.2306 5.25005L17.625 3.80783ZM22.5 6.35783L12.75 10.2578V22.1423L22.5 18.2423V6.35783ZM11.25 22.1423V10.2578L1.5 6.35783V18.2423L11.25 22.1423ZM11.1644 0.276528C11.7008 0.0619582 12.2992 0.0619581 12.8356 0.276528L23.5285 4.55369C23.8133 4.66759 24 4.94337 24 5.25005V18.2423C24 18.8556 23.6266 19.4072 23.0571 19.635L12.2785 23.9464C12.0997 24.0179 11.9003 24.0179 11.7215 23.9464L0.942914 19.635C0.373427 19.4072 0 18.8556 0 18.2423V5.25005C0 4.94337 0.186713 4.66759 0.471457 4.55369L11.1644 0.276528Z" fill="#E8312D"/>
</svg>
