<svg width="34" height="33" viewBox="0 0 34 33" fill="none" xmlns="http://www.w3.org/2000/svg">
<path d="M29.069 28.1955C25.8793 31.3852 22.003 32.98 17.44 32.98C12.8769 32.98 8.97846 31.3852 5.74448 28.1955C2.5548 24.9615 0.959961 21.063 0.959961 16.5C0.959961 11.937 2.5548 8.06066 5.74448 4.87099C8.97846 1.63701 12.8769 0.0200195 17.44 0.0200195C22.003 0.0200195 25.8793 1.63701 29.069 4.87099C32.303 8.06066 33.92 11.937 33.92 16.5C33.92 21.063 32.303 24.9615 29.069 28.1955ZM26.8096 7.13034C24.2402 4.51658 21.1169 3.2097 17.44 3.2097C13.763 3.2097 10.6176 4.51658 8.00383 7.13034C5.43437 9.6998 4.14964 12.823 4.14964 16.5C4.14964 20.177 5.43437 23.3224 8.00383 25.9361C10.6176 28.5056 13.763 29.7903 17.44 29.7903C21.1169 29.7903 24.2402 28.5056 26.8096 25.9361C29.4234 23.3224 30.7303 20.177 30.7303 16.5C30.7303 12.823 29.4234 9.6998 26.8096 7.13034ZM18.769 25.0058H16.1109C15.5793 25.0058 15.3135 24.74 15.3135 24.2084V16.5H10.8613C10.5068 16.5 10.2632 16.345 10.1303 16.0349C9.99738 15.6804 10.0417 15.3925 10.2632 15.171L16.9083 8.52583C17.2628 8.17142 17.6172 8.17142 17.9716 8.52583L24.6167 15.171C24.8382 15.3925 24.8825 15.6804 24.7496 16.0349C24.6167 16.345 24.3731 16.5 24.0187 16.5H19.5664V24.2084C19.5664 24.74 19.3006 25.0058 18.769 25.0058Z" fill="#E8312D"/>
</svg>
