<svg width="31" height="31" viewBox="0 0 31 31" fill="none" xmlns="http://www.w3.org/2000/svg">
<path d="M7.35501 8.306C20.0759 6.57873 23.2107 6.79071 25.1876 9.04181C27.1644 11.2929 26.7016 18.7139 24.3908 20.7793C22.0813 22.8447 12.0515 23.041 8.87401 20.7793C5.51697 18.3884 7.4648 11.0337 7.35501 6.57873C7.42089 4.08581 4.71484 3.68152 4.71484 3.68152" stroke="#E8312D" stroke-width="1.5" stroke-linecap="round" stroke-linejoin="round"/>
<path d="M18.2852 13.8464H21.8669" stroke="#E8312D" stroke-width="1.5" stroke-linecap="round" stroke-linejoin="round"/>
<path fill-rule="evenodd" clip-rule="evenodd" d="M9.38267 25.998C9.77017 25.998 10.0853 26.3132 10.0853 26.7007C10.0853 27.0895 9.77017 27.4047 9.38267 27.4047C8.99388 27.4047 8.67871 27.0895 8.67871 26.7007C8.67871 26.3132 8.99388 25.998 9.38267 25.998Z" fill="#E8312D" stroke="#E8312D" stroke-width="1.5" stroke-linecap="round" stroke-linejoin="round"/>
<path fill-rule="evenodd" clip-rule="evenodd" d="M22.7276 25.998C23.1164 25.998 23.4315 26.3132 23.4315 26.7007C23.4315 27.0895 23.1164 27.4047 22.7276 27.4047C22.3401 27.4047 22.0249 27.0895 22.0249 26.7007C22.0249 26.3132 22.3401 25.998 22.7276 25.998Z" fill="#E8312D" stroke="#E8312D" stroke-width="1.5" stroke-linecap="round" stroke-linejoin="round"/>
</svg>
