<svg width="26" height="26" viewBox="0 0 26 26" fill="none" xmlns="http://www.w3.org/2000/svg">
<path d="M23.5625 4.875C24.0112 4.875 24.375 5.23877 24.375 5.6875V20.3125C24.375 20.7612 24.0112 21.125 23.5625 21.125H2.4375C1.98877 21.125 1.625 20.7612 1.625 20.3125V5.6875C1.625 5.23877 1.98877 4.875 2.4375 4.875H23.5625ZM2.4375 3.25C1.09131 3.25 0 4.34131 0 5.6875V20.3125C0 21.6587 1.09131 22.75 2.4375 22.75H23.5625C24.9087 22.75 26 21.6587 26 20.3125V5.6875C26 4.34131 24.9087 3.25 23.5625 3.25H2.4375Z" fill="#442A73"/>
<path d="M11.375 8.9375C11.375 8.48877 11.7388 8.125 12.1875 8.125H20.3125C20.7612 8.125 21.125 8.48877 21.125 8.9375C21.125 9.38623 20.7612 9.75 20.3125 9.75H12.1875C11.7388 9.75 11.375 9.38623 11.375 8.9375Z" fill="#442A73"/>
<path d="M8.94328 7.55048C9.26058 7.86778 9.26058 8.38222 8.94328 8.69952L6.50578 11.137C6.18848 11.4543 5.67403 11.4543 5.35673 11.137L4.54423 10.3245C4.22693 10.0072 4.22693 9.49278 4.54423 9.17548C4.86153 8.85817 5.37598 8.85817 5.69328 9.17548L5.93125 9.41345L7.79423 7.55048C8.11153 7.23317 8.62598 7.23317 8.94328 7.55048Z" fill="#442A73"/>
<path d="M11.375 15.4375C11.375 14.9888 11.7388 14.625 12.1875 14.625H20.3125C20.7612 14.625 21.125 14.9888 21.125 15.4375C21.125 15.8862 20.7612 16.25 20.3125 16.25H12.1875C11.7388 16.25 11.375 15.8862 11.375 15.4375Z" fill="#442A73"/>
<path d="M8.94328 14.0505C9.26058 14.3678 9.26058 14.8822 8.94328 15.1995L6.50578 17.637C6.18848 17.9543 5.67403 17.9543 5.35673 17.637L4.54423 16.8245C4.22693 16.5072 4.22693 15.9928 4.54423 15.6755C4.86153 15.3582 5.37598 15.3582 5.69328 15.6755L5.93125 15.9135L7.79423 14.0505C8.11153 13.7332 8.62598 13.7332 8.94328 14.0505Z" fill="#442A73"/>
</svg>
