<svg width="27" height="27" viewBox="0 0 27 27" fill="none" xmlns="http://www.w3.org/2000/svg">
<path fill-rule="evenodd" clip-rule="evenodd" d="M18.5625 25.3125C22.2904 25.3125 25.3125 22.2904 25.3125 18.5625C25.3125 14.8346 22.2904 11.8125 18.5625 11.8125C14.8346 11.8125 11.8125 14.8346 11.8125 18.5625C11.8125 22.2904 14.8346 25.3125 18.5625 25.3125ZM27 18.5625C27 23.2224 23.2224 27 18.5625 27C13.9026 27 10.125 23.2224 10.125 18.5625C10.125 13.9026 13.9026 10.125 18.5625 10.125C23.2224 10.125 27 13.9026 27 18.5625Z" fill="black"/>
<path d="M15.9258 20.1561C16.0063 21.1618 16.8002 21.9458 18.2272 22.0386V22.7812H18.8602V22.0334C20.3355 21.9303 21.1992 21.1412 21.1992 19.9963C21.1992 18.9545 20.5394 18.4181 19.3591 18.1396L18.8602 18.021V15.9993C19.4933 16.0715 19.8956 16.417 19.9922 16.8967H21.1027C21.0222 15.9271 20.1907 15.1689 18.8602 15.0864V14.3438H18.2272V15.1019C16.9665 15.2257 16.1082 15.9838 16.1082 17.0565C16.1082 18.0055 16.7466 18.6089 17.8088 18.8565L18.2272 18.9596V21.1051C17.5781 21.0071 17.1489 20.6512 17.0524 20.1561H15.9258ZM18.2218 17.8714C17.5995 17.727 17.2616 17.433 17.2616 16.9895C17.2616 16.4944 17.6264 16.1231 18.2272 16.0147V17.8714H18.2218ZM18.9514 19.1298C19.7078 19.3052 20.0566 19.5888 20.0566 20.0891C20.0566 20.6616 19.622 21.0535 18.8602 21.1257V19.1092L18.9514 19.1298Z" fill="black"/>
<path d="M1.6875 0C0.75552 0 0 0.75552 0 1.6875V15.1875C0 16.1195 0.75552 16.875 1.6875 16.875H8.57749C8.67492 16.2942 8.8218 15.7303 9.01363 15.1875H5.0625C5.0625 13.3235 3.55146 11.8125 1.6875 11.8125V5.0625C3.55146 5.0625 5.0625 3.55146 5.0625 1.6875H21.9375C21.9375 3.55146 23.4485 5.0625 25.3125 5.0625V11.0156C25.9539 11.5897 26.5217 12.2444 27 12.9637V1.6875C27 0.75552 26.2445 0 25.3125 0H1.6875Z" fill="black"/>
<path d="M16.8721 8.57798C16.874 8.53139 16.875 8.48456 16.875 8.4375C16.875 6.57354 15.364 5.0625 13.5 5.0625C11.636 5.0625 10.125 6.57354 10.125 8.4375C10.125 9.5926 10.7053 10.6122 11.5902 11.2206C13.0188 9.8635 14.8431 8.91899 16.8721 8.57798Z" fill="black"/>
</svg>
