<svg width="35" height="35" viewBox="0 0 35 35" fill="none" xmlns="http://www.w3.org/2000/svg">
<path d="M5.46875 17.5C5.46875 10.8553 10.8553 5.46875 17.5 5.46875C19.6932 5.46875 21.7463 6.05461 23.5148 7.07765C24.0377 7.38012 24.7068 7.20144 25.0093 6.67856C25.3117 6.15568 25.133 5.4866 24.6102 5.18413C22.5177 3.97369 20.088 3.28125 17.5 3.28125C9.6472 3.28125 3.28125 9.6472 3.28125 17.5C3.28125 25.3528 9.6472 31.7188 17.5 31.7188C25.3528 31.7188 31.7188 25.3528 31.7188 17.5C31.7188 16.8959 31.2291 16.4062 30.625 16.4062C30.0209 16.4062 29.5312 16.8959 29.5312 17.5C29.5312 24.1447 24.1447 29.5312 17.5 29.5312C10.8553 29.5312 5.46875 24.1447 5.46875 17.5Z" fill="black"/>
<path d="M33.5859 7.3359C34.013 6.90876 34.013 6.21624 33.5859 5.7891C33.1588 5.36197 32.4662 5.36197 32.0391 5.7891L17.5 20.3282L11.7109 14.5391C11.2838 14.112 10.5912 14.112 10.1641 14.5391C9.73697 14.9662 9.73697 15.6588 10.1641 16.0859L16.7266 22.6484C17.1537 23.0755 17.8463 23.0755 18.2734 22.6484L33.5859 7.3359Z" fill="black"/>
</svg>
