<svg width="43" height="43" viewBox="0 0 43 43" fill="none" xmlns="http://www.w3.org/2000/svg">
<path d="M22.8438 26.875C22.1016 26.875 21.5 25.6718 21.5 24.1875C21.5 22.7032 22.1016 21.5 22.8438 21.5C23.5859 21.5 24.1875 22.7032 24.1875 24.1875C24.1875 25.6718 23.5859 26.875 22.8438 26.875Z" fill="#E8312D"/>
<path d="M29.0992 0.328618C29.3935 0.583846 29.5625 0.954217 29.5625 1.34376V2.68751H30.9062C33.1326 2.68751 34.9375 4.49236 34.9375 6.71876V40.3125H38.9688C39.7109 40.3125 40.3125 40.9141 40.3125 41.6563C40.3125 42.3984 39.7109 43 38.9688 43H4.03125C3.28912 43 2.6875 42.3984 2.6875 41.6563C2.6875 40.9141 3.28912 40.3125 4.03125 40.3125H8.0625V4.03126C8.0625 3.36254 8.55422 2.79558 9.21622 2.70101L28.0287 0.0135142C28.4143 -0.0415754 28.8049 0.0733893 29.0992 0.328618ZM30.9062 5.37501H29.5625V40.3125H32.25V6.71876C32.25 5.97663 31.6484 5.37501 30.9062 5.37501ZM10.75 5.19669V40.3125H26.875V2.89312L10.75 5.19669Z" fill="#E8312D"/>
</svg>
