<svg width="28" height="28" viewBox="0 0 28 28" fill="none" xmlns="http://www.w3.org/2000/svg">
<path d="M14 26.25C7.23451 26.25 1.75 20.7655 1.75 14C1.75 7.23451 7.23451 1.75 14 1.75C20.7655 1.75 26.25 7.23451 26.25 14C26.25 20.7655 20.7655 26.25 14 26.25ZM14 28C21.732 28 28 21.732 28 14C28 6.26801 21.732 0 14 0C6.26801 0 0 6.26801 0 14C0 21.732 6.26801 28 14 28Z" fill="#E8312D"/>
<path d="M12.2527 19.25C12.2527 18.2835 13.0362 17.5 14.0027 17.5C14.9692 17.5 15.7527 18.2835 15.7527 19.25C15.7527 20.2165 14.9692 21 14.0027 21C13.0362 21 12.2527 20.2165 12.2527 19.25Z" fill="#E8312D"/>
<path d="M12.4241 8.74132C12.3309 7.809 13.063 7 14 7C14.937 7 15.6691 7.809 15.5759 8.74131L14.9621 14.8793C14.9126 15.3736 14.4967 15.75 14 15.75C13.5033 15.75 13.0874 15.3736 13.0379 14.8793L12.4241 8.74132Z" fill="#E8312D"/>
</svg>
