<svg width="20" height="20" viewBox="0 0 20 20" fill="none" xmlns="http://www.w3.org/2000/svg">
<path fill-rule="evenodd" clip-rule="evenodd" d="M17.5 5.625V17.5C17.5 18.8807 16.3807 20 15 20H13.75V18.75H15C15.6904 18.75 16.25 18.1904 16.25 17.5V5.625H13.75C12.7145 5.625 11.875 4.78553 11.875 3.75V1.25H5C4.30964 1.25 3.75 1.80964 3.75 2.5V13.75H2.5V2.5C2.5 1.11929 3.61929 0 5 0H11.875L17.5 5.625ZM12.0747 15.7903C12.1699 15.9807 12.2285 16.1858 12.2505 16.4055H11.28C11.2556 16.2908 11.2153 16.187 11.1592 16.0942C11.103 16.0015 11.0322 15.9221 10.9468 15.8562C10.8638 15.7878 10.7649 15.7354 10.6501 15.6987C10.5378 15.6621 10.4133 15.6438 10.2766 15.6438C9.92017 15.6438 9.64307 15.7695 9.44531 16.021C9.25 16.2725 9.15234 16.6265 9.15234 17.083V17.7056C9.15234 17.9985 9.19263 18.2549 9.27319 18.4746C9.3562 18.6943 9.48315 18.8665 9.65405 18.991C9.82495 19.113 10.041 19.1741 10.3022 19.1741C10.5317 19.1741 10.7222 19.1338 10.8735 19.0532C11.0249 18.9702 11.1384 18.8604 11.2141 18.7236C11.2898 18.5869 11.3276 18.4356 11.3276 18.2695V17.9509H10.2986V17.2149H12.2688V18.2109C12.2688 18.4526 12.2285 18.6821 12.1479 18.8994C12.0674 19.1143 11.9453 19.3047 11.7817 19.4707C11.6182 19.6367 11.4119 19.7673 11.1628 19.8626C10.9163 19.9553 10.6257 20.0017 10.2913 20.0017C9.93237 20.0017 9.61865 19.9468 9.3501 19.8369C9.08398 19.7246 8.86182 19.5671 8.68359 19.3645C8.50537 19.1619 8.37231 18.9202 8.28442 18.6394C8.19653 18.3587 8.15259 18.0486 8.15259 17.7092V17.0757C8.15259 16.624 8.2356 16.2285 8.40161 15.8892C8.57007 15.5498 8.81299 15.2861 9.13037 15.0982C9.4502 14.9077 9.83594 14.8125 10.2876 14.8125C10.5854 14.8125 10.8503 14.854 11.0823 14.937C11.3167 15.02 11.5168 15.1348 11.6829 15.2813C11.8489 15.4277 11.9795 15.5974 12.0747 15.7903ZM0 18.4819C0 18.687 0.0341797 18.8811 0.102539 19.0642C0.170898 19.2473 0.272217 19.4097 0.406494 19.5513C0.543213 19.6929 0.712891 19.804 0.915527 19.8845C1.12061 19.9627 1.35742 20.0017 1.62598 20.0017C2.15088 20.0017 2.56104 19.8577 2.85645 19.5696C3.1543 19.2815 3.30322 18.8628 3.30322 18.3135V14.9077H2.31445V18.3391C2.31445 18.5906 2.25708 18.7847 2.14233 18.9214C2.02759 19.0581 1.85181 19.1265 1.61499 19.1265C1.48804 19.1265 1.37573 19.0996 1.27808 19.0459C1.18042 18.9898 1.10352 18.9141 1.04736 18.8189C0.991211 18.7212 0.960693 18.6089 0.955811 18.4819H0ZM6.15088 14.9077H4.15137V19.9065H5.14014V18.2293H6.14355C6.50244 18.2293 6.80762 18.1572 7.05908 18.0132C7.31299 17.8667 7.50586 17.669 7.6377 17.4199C7.77197 17.1685 7.83911 16.8865 7.83911 16.574C7.83911 16.2615 7.77319 15.9795 7.64136 15.728C7.50952 15.4766 7.31787 15.2776 7.06641 15.1311C6.81738 14.9822 6.51221 14.9077 6.15088 14.9077ZM6.83203 16.574C6.83203 16.7595 6.79663 16.9182 6.72583 17.0501C6.65747 17.1795 6.55859 17.2795 6.4292 17.3503C6.2998 17.4187 6.14355 17.4529 5.96045 17.4529H5.13647V15.6951H5.96045C6.23389 15.6951 6.44751 15.7708 6.60132 15.9221C6.75513 16.0735 6.83203 16.2908 6.83203 16.574Z" fill="#4A4A4A"/>
</svg>
