<svg width="23" height="22" viewBox="0 0 23 22" fill="none" xmlns="http://www.w3.org/2000/svg">
<path d="M1.4375 3.4375C1.4375 2.29841 2.40289 1.375 3.59375 1.375L7.90625 1.375C9.09711 1.375 10.0625 2.29841 10.0625 3.4375V7.5625C10.0625 8.70159 9.09711 9.625 7.90625 9.625H3.59375C2.40289 9.625 1.4375 8.70159 1.4375 7.5625L1.4375 3.4375ZM3.59375 2.75C3.1968 2.75 2.875 3.0578 2.875 3.4375V7.5625C2.875 7.9422 3.1968 8.25 3.59375 8.25H7.90625C8.3032 8.25 8.625 7.9422 8.625 7.5625V3.4375C8.625 3.0578 8.3032 2.75 7.90625 2.75H3.59375ZM12.9375 3.4375C12.9375 2.29841 13.9029 1.375 15.0938 1.375L19.4062 1.375C20.5971 1.375 21.5625 2.29841 21.5625 3.4375V7.5625C21.5625 8.70159 20.5971 9.625 19.4062 9.625H15.0938C13.9029 9.625 12.9375 8.70159 12.9375 7.5625V3.4375ZM15.0938 2.75C14.6968 2.75 14.375 3.0578 14.375 3.4375V7.5625C14.375 7.9422 14.6968 8.25 15.0938 8.25H19.4062C19.8032 8.25 20.125 7.9422 20.125 7.5625V3.4375C20.125 3.0578 19.8032 2.75 19.4062 2.75H15.0938ZM1.4375 14.4375C1.4375 13.2984 2.40289 12.375 3.59375 12.375H7.90625C9.09711 12.375 10.0625 13.2984 10.0625 14.4375V18.5625C10.0625 19.7016 9.09711 20.625 7.90625 20.625H3.59375C2.40289 20.625 1.4375 19.7016 1.4375 18.5625L1.4375 14.4375ZM3.59375 13.75C3.1968 13.75 2.875 14.0578 2.875 14.4375V18.5625C2.875 18.9422 3.1968 19.25 3.59375 19.25H7.90625C8.3032 19.25 8.625 18.9422 8.625 18.5625V14.4375C8.625 14.0578 8.3032 13.75 7.90625 13.75H3.59375ZM12.9375 14.4375C12.9375 13.2984 13.9029 12.375 15.0938 12.375H19.4062C20.5971 12.375 21.5625 13.2984 21.5625 14.4375V18.5625C21.5625 19.7016 20.5971 20.625 19.4062 20.625H15.0938C13.9029 20.625 12.9375 19.7016 12.9375 18.5625V14.4375ZM15.0938 13.75C14.6968 13.75 14.375 14.0578 14.375 14.4375V18.5625C14.375 18.9422 14.6968 19.25 15.0938 19.25H19.4062C19.8032 19.25 20.125 18.9422 20.125 18.5625V14.4375C20.125 14.0578 19.8032 13.75 19.4062 13.75H15.0938Z" fill="#442A73"/>
</svg>
