<svg width="20" height="20" viewBox="0 0 20 20" fill="none" xmlns="http://www.w3.org/2000/svg">
<path d="M9.99992 11.6667C10.4419 11.6667 10.8659 11.4911 11.1784 11.1785C11.491 10.8659 11.6666 10.442 11.6666 10C11.6666 9.55797 11.491 9.13405 11.1784 8.82149C10.8659 8.50893 10.4419 8.33333 9.99992 8.33333C9.55789 8.33333 9.13397 8.50893 8.82141 8.82149C8.50885 9.13405 8.33325 9.55797 8.33325 10C8.33325 10.442 8.50885 10.8659 8.82141 11.1785C9.13397 11.4911 9.55789 11.6667 9.99992 11.6667Z" stroke="#1B1B1B" stroke-width="1.25" stroke-linecap="round" stroke-linejoin="round"/>
<path d="M17.5 10C15.9258 12.4925 13.0983 15 10 15C6.90167 15 4.07417 12.4925 2.5 10C4.41583 7.63167 6.66 5 10 5C13.34 5 15.5842 7.63167 17.5 10Z" stroke="#1B1B1B" stroke-width="1.25" stroke-linecap="round" stroke-linejoin="round"/>
</svg>
