<svg width="24" height="24" viewBox="0 0 24 24" fill="none" xmlns="http://www.w3.org/2000/svg">
<path d="M9.00195 8.25C9.00195 9.49264 7.99459 10.5 6.75195 10.5C5.50931 10.5 4.50195 9.49264 4.50195 8.25C4.50195 7.00736 5.50931 6 6.75195 6C7.99459 6 9.00195 7.00736 9.00195 8.25Z" fill="black"/>
<path d="M3.00195 1.5C1.3451 1.5 0.00195312 2.84315 0.00195312 4.5V19.5C0.00195312 21.1569 1.3451 22.5 3.00195 22.5H21.002C22.6588 22.5 24.002 21.1569 24.002 19.5V4.5C24.002 2.84315 22.6588 1.5 21.002 1.5H3.00195ZM21.002 3C21.8304 3 22.502 3.67157 22.502 4.5V14.25L16.8374 11.3292C16.5486 11.1848 16.1999 11.2414 15.9716 11.4697L10.4064 17.0349L6.41798 14.376C6.12051 14.1777 5.72442 14.2169 5.47162 14.4697L1.50195 18V4.5C1.50195 3.67157 2.17353 3 3.00195 3H21.002Z" fill="black"/>
</svg>
