<svg width="22" height="22" viewBox="0 0 22 22" fill="none" xmlns="http://www.w3.org/2000/svg">
<path d="M11 22C17.0751 22 22 17.0751 22 11C22 4.92487 17.0751 0 11 0C4.92487 0 0 4.92487 0 11C0 17.0751 4.92487 22 11 22ZM12.2797 9.05835L10.902 15.5278C10.8054 15.9951 10.9423 16.261 11.321 16.261C11.5868 16.261 11.9897 16.1643 12.2636 15.9226L12.1428 16.4946C11.748 16.97 10.8779 17.3164 10.1286 17.3164C9.1618 17.3164 8.75091 16.7363 9.01678 15.5037L10.0319 10.7341C10.1205 10.3313 10.04 10.1863 9.63714 10.0896L9.01678 9.97681L9.12957 9.45312L12.2797 9.05835ZM11 7.5625C10.2406 7.5625 9.625 6.94689 9.625 6.1875C9.625 5.42811 10.2406 4.8125 11 4.8125C11.7594 4.8125 12.375 5.42811 12.375 6.1875C12.375 6.94689 11.7594 7.5625 11 7.5625Z" fill="#E8312D"/>
</svg>
