<svg width="35" height="35" viewBox="0 0 35 35" fill="none" xmlns="http://www.w3.org/2000/svg">
<path d="M17.5016 0C12.7489 0 12.1524 0.0207818 10.2857 0.105731C8.42269 0.191044 7.15101 0.485995 6.03829 0.91876C4.88729 1.36574 3.91093 1.96367 2.93821 2.93675C1.96476 3.90947 1.36684 4.88583 0.918395 6.03647C0.484536 7.14955 0.189221 8.4216 0.105366 10.2839C0.0218751 12.1506 0 12.7474 0 17.5002C0 22.2529 0.0211464 22.8476 0.105731 24.7143C0.191409 26.5773 0.486359 27.849 0.91876 28.9617C1.36611 30.1127 1.96403 31.0891 2.93711 32.0618C3.90947 33.0352 4.88583 33.6346 6.0361 34.0816C7.14955 34.5144 8.4216 34.8093 10.2843 34.8946C12.151 34.9796 12.7471 35.0004 17.4995 35.0004C22.2526 35.0004 22.8472 34.9796 24.7139 34.8946C26.5769 34.8093 27.8501 34.5144 28.9635 34.0816C30.1142 33.6346 31.0891 33.0352 32.0614 32.0618C33.0349 31.0891 33.6328 30.1127 34.0812 28.9621C34.5115 27.849 34.8068 26.5769 34.8943 24.7146C34.9781 22.8479 35 22.2529 35 17.5002C35 12.7474 34.9781 12.151 34.8943 10.2843C34.8068 8.42123 34.5115 7.14955 34.0812 6.03683C33.6328 4.88583 33.0349 3.90947 32.0614 2.93675C31.088 1.9633 30.1145 1.36538 28.9624 0.91876C27.8468 0.485995 26.5744 0.191044 24.7114 0.105731C22.8447 0.0207818 22.2504 0 17.4962 0H17.5016ZM15.9317 3.15368C16.3977 3.15295 16.9176 3.15368 17.5016 3.15368C22.1742 3.15368 22.728 3.17045 24.5732 3.2543C26.2794 3.33233 27.2055 3.61743 27.8224 3.85697C28.639 4.17416 29.2213 4.55333 29.8334 5.16583C30.4459 5.77834 30.8251 6.36168 31.143 7.17836C31.3826 7.79451 31.668 8.72056 31.7457 10.4268C31.8295 12.2716 31.8478 12.8258 31.8478 17.4962C31.8478 22.1665 31.8295 22.7207 31.7457 24.5655C31.6677 26.2718 31.3826 27.1978 31.143 27.814C30.8258 28.6307 30.4459 29.2122 29.8334 29.8243C29.2209 30.4368 28.6394 30.816 27.8224 31.1332C27.2062 31.3738 26.2794 31.6582 24.5732 31.7362C22.7284 31.8201 22.1742 31.8383 17.5016 31.8383C12.8287 31.8383 12.2749 31.8201 10.4301 31.7362C8.72384 31.6575 7.79779 31.3724 7.18054 31.1328C6.36387 30.8156 5.78053 30.4365 5.16802 29.824C4.55552 29.2114 4.17635 28.6296 3.85843 27.8125C3.61889 27.1964 3.33342 26.2703 3.25576 24.5641C3.17191 22.7192 3.15514 22.1651 3.15514 17.4918C3.15514 12.8185 3.17191 12.2673 3.25576 10.4225C3.33378 8.71618 3.61889 7.79013 3.85843 7.17325C4.17562 6.35658 4.55552 5.77324 5.16802 5.16073C5.78053 4.54822 6.36387 4.16905 7.18054 3.85113C7.79742 3.61051 8.72384 3.32613 10.4301 3.24774C12.0445 3.17482 12.6701 3.15295 15.9317 3.1493V3.15368ZM26.8431 6.05944C25.6837 6.05944 24.7431 6.99898 24.7431 8.15873C24.7431 9.31812 25.6837 10.2588 26.8431 10.2588C28.0025 10.2588 28.9431 9.31812 28.9431 8.15873C28.9431 6.99934 28.0025 6.05871 26.8431 6.05871V6.05944ZM17.5016 8.51311C12.5385 8.51311 8.51457 12.5371 8.51457 17.5002C8.51457 22.4633 12.5385 26.4854 17.5016 26.4854C22.4648 26.4854 26.4873 22.4633 26.4873 17.5002C26.4873 12.5371 22.4644 8.51311 17.5013 8.51311H17.5016ZM17.5016 11.6668C20.7231 11.6668 23.335 14.2783 23.335 17.5002C23.335 20.7217 20.7231 23.3336 17.5016 23.3336C14.2798 23.3336 11.6682 20.7217 11.6682 17.5002C11.6682 14.2783 14.2798 11.6668 17.5016 11.6668Z" fill="black"/>
</svg>
