<svg width="23" height="23" viewBox="0 0 23 23" fill="none" xmlns="http://www.w3.org/2000/svg">
<path d="M17.4605 0.210517C17.7412 -0.0701724 18.1963 -0.0701724 18.477 0.210517L22.7895 4.52302C23.0702 4.80371 23.0702 5.25879 22.7895 5.53948L8.4145 19.9145C8.34568 19.9833 8.26358 20.0374 8.17321 20.0736L0.985708 22.9486C0.718752 23.0554 0.413845 22.9928 0.210538 22.7895C0.00723046 22.5862 -0.055354 22.2813 0.0514283 22.0143L2.92643 14.8268C2.96258 14.7364 3.01671 14.6543 3.08554 14.5855L17.4605 0.210517ZM16.1102 3.59375L19.4063 6.88978L21.2648 5.03125L17.9688 1.73522L16.1102 3.59375ZM18.3898 7.90625L15.0938 4.61022L5.75002 13.954V14.375H6.46877C6.86573 14.375 7.18752 14.6968 7.18752 15.0938V15.8125H7.90627C8.30323 15.8125 8.62502 16.1343 8.62502 16.5312V17.25H9.04605L18.3898 7.90625ZM4.35802 15.346L4.20632 15.4977L2.00897 20.9911L7.50236 18.7937L7.65405 18.642C7.38151 18.5399 7.18752 18.277 7.18752 17.9688V17.25H6.46877C6.07182 17.25 5.75002 16.9282 5.75002 16.5312V15.8125H5.03127C4.72306 15.8125 4.46017 15.6185 4.35802 15.346Z" fill="#E8312D"/>
</svg>
