<svg width="42" height="42" viewBox="0 0 42 42" fill="none" xmlns="http://www.w3.org/2000/svg">
<path d="M40.6917 5.09077C41.2042 5.60333 41.2042 6.43436 40.6917 6.94692L37.9541 9.68449L32.7041 4.43449L35.4417 1.69692C35.9542 1.18436 36.7853 1.18436 37.2978 1.69692L40.6917 5.09077Z" fill="#E8312D"/>
<path d="M36.098 11.5406L30.848 6.29064L12.9639 24.1748C12.8198 24.3188 12.7112 24.4945 12.6468 24.6878L10.5348 31.0237C10.3638 31.5367 10.8519 32.0248 11.3649 31.8538L17.7008 29.7418C17.8941 29.6774 18.0698 29.5688 18.2139 29.4248L36.098 11.5406Z" fill="#E8312D"/>
<path fill-rule="evenodd" clip-rule="evenodd" d="M2.625 35.4375C2.625 37.6121 4.38788 39.375 6.5625 39.375H35.4375C37.6121 39.375 39.375 37.6121 39.375 35.4375V19.6875C39.375 18.9626 38.7874 18.375 38.0625 18.375C37.3376 18.375 36.75 18.9626 36.75 19.6875V35.4375C36.75 36.1624 36.1624 36.75 35.4375 36.75H6.5625C5.83763 36.75 5.25 36.1624 5.25 35.4375V6.5625C5.25 5.83763 5.83763 5.25 6.5625 5.25H23.625C24.3499 5.25 24.9375 4.66237 24.9375 3.9375C24.9375 3.21263 24.3499 2.625 23.625 2.625H6.5625C4.38788 2.625 2.625 4.38788 2.625 6.5625V35.4375Z" fill="#E8312D"/>
</svg>
