<svg width="25" height="28" viewBox="0 0 25 28" fill="none" xmlns="http://www.w3.org/2000/svg">
<ellipse cx="12.8947" cy="11.9771" rx="4.97712" ry="4.97712" stroke="white" stroke-width="1.5" stroke-linecap="round" stroke-linejoin="round"/>
<path fill-rule="evenodd" clip-rule="evenodd" d="M5.00002 23.8764C4.99868 23.5265 5.07693 23.1809 5.22885 22.8657C5.70559 21.9123 7.04998 21.4069 8.16554 21.1781C8.97008 21.0064 9.78574 20.8917 10.6064 20.8348C12.1259 20.7014 13.6541 20.7014 15.1735 20.8348C15.9942 20.8924 16.8098 21.0071 17.6144 21.1781C18.73 21.4069 20.0744 21.8646 20.5511 22.8657C20.8566 23.5082 20.8566 24.2541 20.5511 24.8966C20.0744 25.8978 18.73 26.3554 17.6144 26.5747C16.8108 26.7535 15.9949 26.8715 15.1735 26.9275C13.9368 27.0324 12.6944 27.0515 11.455 26.9847C11.169 26.9847 10.8925 26.9847 10.6064 26.9275C9.78816 26.8722 8.97533 26.7542 8.17507 26.5747C7.04998 26.3554 5.71512 25.8978 5.22885 24.8966C5.07771 24.5778 4.99953 24.2293 5.00002 23.8764Z" stroke="white" stroke-width="1.5" stroke-linecap="round" stroke-linejoin="round"/>
</svg>
