<svg width="40" height="40" viewBox="0 0 40 40" fill="none" xmlns="http://www.w3.org/2000/svg">
<path fill-rule="evenodd" clip-rule="evenodd" d="M20 15.8333C22.3014 15.8333 24.1666 17.6985 24.1666 19.9999C24.1666 22.3014 22.3014 24.1666 20 24.1666C17.6985 24.1666 15.8333 22.3014 15.8333 19.9999C15.8333 17.6985 17.6985 15.8333 20 15.8333Z" stroke="#112950" stroke-width="1.5" stroke-linecap="round" stroke-linejoin="round"/>
<path fill-rule="evenodd" clip-rule="evenodd" d="M33.6133 12.0837V12.0837C32.4741 10.0966 29.952 9.41669 27.9808 10.5642C26.2663 11.5602 24.1234 10.3139 24.1234 8.32025C24.1234 6.02695 22.2764 4.16663 19.9996 4.16663V4.16663C17.7227 4.16663 15.8758 6.02695 15.8758 8.32025C15.8758 10.3139 13.7329 11.5602 12.02 10.5642C10.0471 9.41669 7.5251 10.0966 6.38586 12.0837C5.24825 14.0708 5.9233 16.611 7.89613 17.7569C9.60909 18.7545 9.60909 21.2454 7.89613 22.243C5.9233 23.3905 5.24825 25.9308 6.38586 27.9162C7.5251 29.9033 10.0471 30.5832 12.0183 29.4374H12.02C13.7329 28.4397 15.8758 29.686 15.8758 31.6797V31.6797C15.8758 33.973 17.7227 35.8333 19.9996 35.8333V35.8333C22.2764 35.8333 24.1234 33.973 24.1234 31.6797V31.6797C24.1234 29.686 26.2663 28.4397 27.9808 29.4374C29.952 30.5832 32.4741 29.9033 33.6133 27.9162C34.7526 25.9308 34.0759 23.3905 32.1047 22.243H32.103C30.3901 21.2454 30.3901 18.7545 32.1047 17.7569C34.0759 16.611 34.7526 14.0708 33.6133 12.0837Z" stroke="#112950" stroke-width="1.5" stroke-linecap="round" stroke-linejoin="round"/>
</svg>
