<svg width="40" height="40" viewBox="0 0 40 40" fill="none" xmlns="http://www.w3.org/2000/svg">
<path fill-rule="evenodd" clip-rule="evenodd" d="M20.0002 15.8333C22.3016 15.8333 24.1668 17.6985 24.1668 20C24.1668 22.3015 22.3016 24.1667 20.0002 24.1667C17.6987 24.1667 15.8335 22.3015 15.8335 20C15.8335 17.6985 17.6987 15.8333 20.0002 15.8333Z" stroke="#E8312D" stroke-width="1.5" stroke-linecap="round" stroke-linejoin="round"/>
<path fill-rule="evenodd" clip-rule="evenodd" d="M33.6135 12.0837V12.0837C32.4743 10.0967 29.9522 9.41674 27.981 10.5642C26.2664 11.5602 24.1236 10.314 24.1236 8.3203C24.1236 6.027 22.2766 4.16667 19.9998 4.16667V4.16667C17.7229 4.16667 15.8759 6.027 15.8759 8.3203C15.8759 10.314 13.7331 11.5602 12.0202 10.5642C10.0473 9.41674 7.52529 10.0967 6.38604 12.0837C5.24843 14.0708 5.92348 16.6111 7.89632 17.7569C9.60927 18.7546 9.60927 21.2454 7.89632 22.2431C5.92348 23.3906 5.24843 25.9308 6.38604 27.9163C7.52529 29.9033 10.0473 30.5833 12.0185 29.4374H12.0202C13.7331 28.4398 15.8759 29.686 15.8759 31.6797V31.6797C15.8759 33.973 17.7229 35.8333 19.9998 35.8333V35.8333C22.2766 35.8333 24.1236 33.973 24.1236 31.6797V31.6797C24.1236 29.686 26.2664 28.4398 27.981 29.4374C29.9522 30.5833 32.4743 29.9033 33.6135 27.9163C34.7527 25.9308 34.0761 23.3906 32.1049 22.2431H32.1032C30.3903 21.2454 30.3903 18.7546 32.1049 17.7569C34.0761 16.6111 34.7527 14.0708 33.6135 12.0837Z" stroke="#E8312D" stroke-width="1.5" stroke-linecap="round" stroke-linejoin="round"/>
</svg>
