<svg width="29" height="29" viewBox="0 0 29 29" fill="none" xmlns="http://www.w3.org/2000/svg">
<path d="M6.62265 2.40789C6.16872 1.82427 5.306 1.77056 4.78319 2.29337L2.90921 4.16735C2.03291 5.04365 1.71076 6.28512 2.09362 7.3741C3.63112 11.7472 6.14828 15.8534 9.64743 19.3526C13.1466 22.8517 17.2528 25.3689 21.6259 26.9064C22.7149 27.2892 23.9563 26.9671 24.8326 26.0908L26.7066 24.2168C27.2294 23.694 27.1757 22.8313 26.5921 22.3774L22.4121 19.1263C22.114 18.8944 21.7258 18.8124 21.3594 18.904L17.3917 19.896C16.314 20.1654 15.1739 19.8496 14.3884 19.0641L9.93589 14.6116C9.15039 13.8261 8.83462 12.686 9.10404 11.6083L10.096 7.64064C10.1876 7.27421 10.1056 6.88601 9.87374 6.58786L6.62265 2.40789ZM3.41615 0.926325C4.76123 -0.418757 6.98083 -0.28057 8.14869 1.22096L11.3998 5.40094C11.9964 6.16801 12.2072 7.16678 11.9715 8.10954L10.9796 12.0772C10.8749 12.4961 10.9976 12.9392 11.3029 13.2445L15.7555 17.6971C16.0608 18.0024 16.5039 18.1251 16.9228 18.0204L20.8905 17.0285C21.8332 16.7928 22.832 17.0036 23.5991 17.6002L27.779 20.8513C29.2806 22.0192 29.4188 24.2388 28.0737 25.5838L26.1997 27.4578C24.8589 28.7986 22.8536 29.3873 20.9847 28.7302C16.3443 27.0988 11.9886 24.4278 8.28039 20.7196C4.5722 17.0114 1.90122 12.6557 0.269769 8.01533C-0.387299 6.14641 0.201423 4.14105 1.54217 2.80031L3.41615 0.926325Z" fill="black"/>
</svg>
