<svg width="28" height="28" viewBox="0 0 28 28" fill="none" xmlns="http://www.w3.org/2000/svg">
<path d="M14 6.125C14 5.64175 13.6082 5.25 13.125 5.25C12.6418 5.25 12.25 5.64175 12.25 6.125V15.75C12.25 16.064 12.4183 16.3539 12.6909 16.5097L18.8159 20.0097C19.2355 20.2495 19.77 20.1037 20.0097 19.6841C20.2495 19.2645 20.1037 18.73 19.6841 18.4903L14 15.2422V6.125Z" fill="#E8312D"/>
<path d="M14 28C21.732 28 28 21.732 28 14C28 6.26801 21.732 0 14 0C6.26801 0 0 6.26801 0 14C0 21.732 6.26801 28 14 28ZM26.25 14C26.25 20.7655 20.7655 26.25 14 26.25C7.23451 26.25 1.75 20.7655 1.75 14C1.75 7.23451 7.23451 1.75 14 1.75C20.7655 1.75 26.25 7.23451 26.25 14Z" fill="#E8312D"/>
</svg>
