<svg width="29" height="29" viewBox="0 0 29 29" fill="none" xmlns="http://www.w3.org/2000/svg">
<path d="M27.1875 6.34375C25.8762 6.34375 24.8738 6.34375 23.5625 6.34375V3.625H25.375C25.8762 3.625 26.2812 3.219 26.2812 2.71875C26.2812 2.2185 25.8762 1.8125 25.375 1.8125H19.9375C19.4363 1.8125 19.0312 2.2185 19.0312 2.71875C19.0312 3.219 19.4363 3.625 19.9375 3.625H21.75V6.34375C20.4387 6.34375 19.4363 6.34375 18.125 6.34375C17.6238 6.34375 17.2188 6.74975 17.2188 7.25C17.2188 7.75025 17.6238 8.15625 18.125 8.15625H19.0312V19.0312C19.0312 20.7151 20.1903 22.1225 21.75 22.5276V26.2812C21.75 26.7815 22.1551 27.1875 22.6562 27.1875C23.1574 27.1875 23.5625 26.7815 23.5625 26.2812V22.5276C25.1222 22.1225 26.2812 20.7151 26.2812 19.0312V8.15625H27.1875C27.6887 8.15625 28.0938 7.75025 28.0938 7.25C28.0938 6.74975 27.6887 6.34375 27.1875 6.34375ZM24.4688 19.0312C24.4688 20.0308 23.6558 20.8438 22.6562 20.8438C21.6567 20.8438 20.8438 20.0308 20.8438 19.0312H21.75C22.2512 19.0312 22.6562 18.6252 22.6562 18.125C22.6562 17.6248 22.2512 17.2188 21.75 17.2188H20.8438V15.4062H21.75C22.2512 15.4062 22.6562 15.0002 22.6562 14.5C22.6562 13.9998 22.2512 13.5938 21.75 13.5938H20.8438V11.7812H21.75C22.2512 11.7812 22.6562 11.3752 22.6562 10.875C22.6562 10.3748 22.2512 9.96875 21.75 9.96875H20.8438V8.15625H24.4688V19.0312Z" fill="#E8312D"/>
<path d="M1.8125 18.125V26.2812C1.8125 26.7815 2.21759 27.1875 2.71875 27.1875H15.4062C15.9074 27.1875 16.3125 26.7815 16.3125 26.2812V18.125C16.3125 15.4353 14.3496 13.1959 11.7812 12.7627V10.875H12.6875C13.1887 10.875 13.5938 10.469 13.5938 9.96875V6.34375C13.5938 5.8435 13.1887 5.4375 12.6875 5.4375H5.4375C4.93634 5.4375 4.53125 5.8435 4.53125 6.34375V9.96875C4.53125 10.469 4.93634 10.875 5.4375 10.875H6.34375V12.7627C3.77544 13.1959 1.8125 15.4353 1.8125 18.125ZM6.34375 7.25H11.7812V9.0625C9.80562 9.0625 8.22875 9.0625 6.34375 9.0625V7.25ZM7.25 14.5C7.75116 14.5 8.15625 14.094 8.15625 13.5938V10.875H9.96875V13.5938C9.96875 14.094 10.3738 14.5 10.875 14.5C12.8742 14.5 14.5 16.1258 14.5 18.125V25.375H3.625V18.125C3.625 16.1258 5.25081 14.5 7.25 14.5Z" fill="#E8312D"/>
<path d="M5.4375 19.9375C5.4375 19.4372 5.84259 19.0312 6.34375 19.0312H8.15625V17.2188C8.15625 16.7185 8.56134 16.3125 9.0625 16.3125C9.56366 16.3125 9.96875 16.7185 9.96875 17.2188V19.0312H11.7812C12.2824 19.0312 12.6875 19.4372 12.6875 19.9375C12.6875 20.4377 12.2824 20.8438 11.7812 20.8438H9.96875V22.6562C9.96875 23.1565 9.56366 23.5625 9.0625 23.5625C8.56134 23.5625 8.15625 23.1565 8.15625 22.6562V20.8438H6.34375C5.84259 20.8438 5.4375 20.4377 5.4375 19.9375Z" fill="#E8312D"/>
</svg>
