<svg width="30" height="30" viewBox="0 0 30 30" fill="none" xmlns="http://www.w3.org/2000/svg">
<path d="M14.5383 15.4617C14.6661 15.5883 14.833 15.6522 15 15.6522C15.167 15.6522 15.3339 15.5883 15.4604 15.4617L20.6778 10.2443C20.9322 9.99 20.9322 9.57652 20.6778 9.32217C20.4235 9.06783 20.01 9.06783 19.7557 9.32217L14.5383 14.5396C14.2839 14.7939 14.2839 15.2074 14.5383 15.4617ZM10.6252 14.1574C10.753 14.2839 10.92 14.3478 11.087 14.3478C11.2539 14.3478 11.4209 14.2839 11.5474 14.1574L19.3735 6.3313C19.6278 6.07696 19.6278 5.66348 19.3735 5.40913C19.1191 5.15478 18.7057 5.15478 18.4513 5.40913L10.6252 13.2352C10.3709 13.4896 10.3709 13.903 10.6252 14.1574ZM9.78261 10.4348C9.94957 10.4348 10.1165 10.3709 10.243 10.2443L15.4604 5.02696C15.7148 4.77261 15.7148 4.35913 15.4604 4.10478C15.2061 3.85044 14.7926 3.85044 14.5383 4.10478L9.32087 9.32217C9.06652 9.57652 9.06652 9.99 9.32087 10.2443C9.4487 10.3709 9.61565 10.4348 9.78261 10.4348ZM28.0435 7.82609C27.1943 7.82609 26.477 8.37261 26.207 9.13043H24.75C24.4122 4.03957 20.1757 0 15 0C9.82435 0 5.58783 4.03957 5.25 9.13043H3.79304C3.52304 8.37261 2.80565 7.82609 1.95652 7.82609C0.877826 7.82609 0 8.70391 0 9.78261C0 10.6409 0.558261 11.3635 1.32913 11.627C1.58478 18.2557 6.48913 23.7117 13.0435 24.643V26.087H12.3913C10.5939 26.087 9.13043 27.5504 9.13043 29.3478C9.13043 29.7078 9.42261 30 9.78261 30H20.2174C20.5774 30 20.8696 29.7078 20.8709 29.3478C20.8709 27.5504 19.4074 26.087 17.61 26.087H16.9578V24.643C23.5122 23.7104 28.4165 18.2557 28.6722 11.6257C29.4417 11.3622 30 10.6396 30 9.78261C30 8.70391 29.1222 7.82609 28.0435 7.82609ZM15 1.30435C19.6748 1.30435 23.4783 5.10783 23.4783 9.78261C23.4783 14.4574 19.6748 18.2609 15 18.2609C10.3252 18.2609 6.52174 14.4574 6.52174 9.78261C6.52174 5.10783 10.3252 1.30435 15 1.30435ZM1.95652 10.4348C1.59652 10.4348 1.30435 10.1426 1.30435 9.78261C1.30435 9.42261 1.59652 9.13043 1.95652 9.13043C2.31652 9.13043 2.6087 9.42261 2.6087 9.78261C2.6087 10.1426 2.31652 10.4348 1.95652 10.4348ZM16.2404 23.4157C15.9065 23.4496 15.6522 23.73 15.6522 24.0652V26.7391C15.6522 27.0991 15.9443 27.3913 16.3043 27.3913H17.6087C18.4591 27.3913 19.1843 27.9365 19.4543 28.6957H10.547C10.817 27.9365 11.5422 27.3913 12.3926 27.3913H13.697C14.057 27.3913 14.3491 27.0991 14.3491 26.7391V24.0652C14.3491 23.73 14.0948 23.4483 13.7609 23.4157C7.58217 22.8013 2.88 17.7783 2.62043 11.623C2.63609 11.6178 2.64913 11.6074 2.66348 11.6022C2.74826 11.5683 2.82913 11.5265 2.90739 11.4822C2.94783 11.4587 2.99087 11.4404 3.03 11.4157C3.13696 11.3452 3.23739 11.2643 3.3287 11.1743C3.35348 11.1496 3.37435 11.1209 3.39783 11.0948C3.46826 11.0178 3.53478 10.9383 3.59217 10.8509C3.62217 10.8065 3.64304 10.757 3.66913 10.71C3.70826 10.6383 3.74609 10.5665 3.77609 10.4883C3.78391 10.47 3.79565 10.4543 3.80217 10.4348H5.25C5.58783 15.5257 9.82435 19.5652 15 19.5652C20.1757 19.5652 24.4122 15.5257 24.75 10.4348H26.1991C26.2043 10.4517 26.2161 10.4648 26.2213 10.4817C26.2552 10.5704 26.2983 10.6526 26.3439 10.7335C26.3648 10.7713 26.3817 10.8104 26.4052 10.8457C26.4783 10.9578 26.5604 11.0622 26.653 11.1561L26.657 11.1613C26.7535 11.2578 26.8604 11.3426 26.9752 11.4183C27.0065 11.4391 27.0417 11.4535 27.0743 11.4717C27.1591 11.5213 27.2465 11.567 27.3391 11.6022C27.3535 11.6074 27.3652 11.6165 27.3796 11.6217C27.1213 17.7783 22.4191 22.8013 16.2404 23.4157ZM28.0435 10.4348C27.6835 10.4348 27.3913 10.1426 27.3913 9.78261V9.78C27.3939 9.4213 27.6848 9.13043 28.0435 9.13043C28.4035 9.13043 28.6957 9.42261 28.6957 9.78261C28.6957 10.1426 28.4035 10.4348 28.0435 10.4348Z" fill="#442A73"/>
</svg>
